<svg width="18" height="17" viewBox="0 0 25 21" fill="none" xmlns="http://www.w3.org/2000/svg">
<g id="icon-close">
<path id="Combined Shape" fill-rule="evenodd" clip-rule="evenodd" d="M1.75452 18.3914C1.33777 18.7538 1.33777 19.3413 1.75452 19.7037C2.17128 20.0661 2.84697 20.0661 3.26372 19.7037L12.4999 11.6721L21.7362 19.7038C22.1529 20.0662 22.8286 20.0662 23.2454 19.7038C23.6621 19.3414 23.6621 18.7538 23.2454 18.3914L14.0091 10.3598L23.6589 1.96855C24.0756 1.60615 24.0756 1.01859 23.6589 0.656185C23.2421 0.293784 22.5664 0.293783 22.1497 0.656184L12.4999 9.04741L2.85023 0.656246C2.43347 0.293845 1.75778 0.293845 1.34103 0.656246C0.924272 1.01865 0.924271 1.60621 1.34103 1.96861L10.9907 10.3598L1.75452 18.3914Z" fill="white"/>
</g>
</svg>
